<svg width="160" height="44" viewBox="0 0 160 44" fill="none" xmlns="http://www.w3.org/2000/svg">
<path d="M49.7636 29.16C49.3502 29.16 49.0302 29.0467 48.8036 28.82C48.5902 28.58 48.4836 28.2533 48.4836 27.84V17.04H44.5836C44.2369 17.04 43.9636 16.9467 43.7636 16.76C43.5769 16.56 43.4836 16.2933 43.4836 15.96C43.4836 15.6133 43.5769 15.3533 43.7636 15.18C43.9636 14.9933 44.2369 14.9 44.5836 14.9H54.9436C55.2902 14.9 55.5569 14.9933 55.7436 15.18C55.9436 15.3533 56.0436 15.6133 56.0436 15.96C56.0436 16.2933 55.9436 16.56 55.7436 16.76C55.5569 16.9467 55.2902 17.04 54.9436 17.04H51.0436V27.84C51.0436 28.2533 50.9369 28.58 50.7236 28.82C50.5102 29.0467 50.1902 29.16 49.7636 29.16ZM58.0829 29.16C57.7629 29.16 57.5029 29.0867 57.3029 28.94C57.1163 28.7933 57.0029 28.6 56.9629 28.36C56.9229 28.1067 56.9696 27.8267 57.1029 27.52L62.3829 15.82C62.5563 15.4333 62.7629 15.16 63.0029 15C63.2563 14.8267 63.5429 14.74 63.8629 14.74C64.1696 14.74 64.4429 14.8267 64.6829 15C64.9363 15.16 65.1496 15.4333 65.3229 15.82L70.6229 27.52C70.7696 27.8267 70.8229 28.1067 70.7829 28.36C70.7429 28.6133 70.6296 28.8133 70.4429 28.96C70.2563 29.0933 70.0096 29.16 69.7029 29.16C69.3296 29.16 69.0363 29.0733 68.8229 28.9C68.6229 28.7133 68.4429 28.4333 68.2829 28.06L66.9829 25.04L68.0629 25.74H59.6229L60.7029 25.04L59.4229 28.06C59.2496 28.4467 59.0696 28.7267 58.8829 28.9C58.6963 29.0733 58.4296 29.16 58.0829 29.16ZM63.8229 17.68L61.0229 24.34L60.5029 23.7H67.1829L66.6829 24.34L63.8629 17.68H63.8229ZM76.1857 29C75.7457 29 75.4057 28.8867 75.1657 28.66C74.9391 28.42 74.8257 28.08 74.8257 27.64V16.26C74.8257 15.82 74.9391 15.4867 75.1657 15.26C75.4057 15.02 75.7457 14.9 76.1857 14.9H80.9857C81.9724 14.9 82.8124 15.0467 83.5057 15.34C84.1991 15.6333 84.7257 16.0533 85.0857 16.6C85.4591 17.1467 85.6457 17.8 85.6457 18.56C85.6457 19.4133 85.3991 20.1333 84.9057 20.72C84.4124 21.3067 83.7391 21.7 82.8857 21.9V21.6C83.8724 21.7467 84.6391 22.12 85.1857 22.72C85.7324 23.32 86.0057 24.1 86.0057 25.06C86.0057 26.3133 85.5791 27.2867 84.7257 27.98C83.8857 28.66 82.7124 29 81.2057 29H76.1857ZM77.2857 27.06H80.8857C81.7924 27.06 82.4591 26.8867 82.8857 26.54C83.3124 26.18 83.5257 25.6467 83.5257 24.94C83.5257 24.22 83.3124 23.6867 82.8857 23.34C82.4591 22.9933 81.7924 22.82 80.8857 22.82H77.2857V27.06ZM77.2857 20.88H80.5457C81.4257 20.88 82.0791 20.7133 82.5057 20.38C82.9457 20.0333 83.1657 19.5267 83.1657 18.86C83.1657 18.1933 82.9457 17.6933 82.5057 17.36C82.0791 17.0133 81.4257 16.84 80.5457 16.84H77.2857V20.88ZM91.8753 29.16C91.4619 29.16 91.1419 29.0467 90.9153 28.82C90.7019 28.58 90.5953 28.2533 90.5953 27.84V16.06C90.5953 15.6333 90.7019 15.3067 90.9153 15.08C91.1419 14.8533 91.4619 14.74 91.8753 14.74C92.2886 14.74 92.6019 14.8533 92.8153 15.08C93.0419 15.3067 93.1553 15.6333 93.1553 16.06V27.84C93.1553 28.2533 93.0486 28.58 92.8353 28.82C92.6219 29.0467 92.3019 29.16 91.8753 29.16ZM98.3798 29.16C98.0598 29.16 97.7998 29.0867 97.5998 28.94C97.4131 28.7933 97.2998 28.6 97.2598 28.36C97.2198 28.1067 97.2665 27.8267 97.3998 27.52L102.68 15.82C102.853 15.4333 103.06 15.16 103.3 15C103.553 14.8267 103.84 14.74 104.16 14.74C104.466 14.74 104.74 14.8267 104.98 15C105.233 15.16 105.446 15.4333 105.62 15.82L110.92 27.52C111.066 27.8267 111.12 28.1067 111.08 28.36C111.04 28.6133 110.926 28.8133 110.74 28.96C110.553 29.0933 110.306 29.16 110 29.16C109.626 29.16 109.333 29.0733 109.12 28.9C108.92 28.7133 108.74 28.4333 108.58 28.06L107.28 25.04L108.36 25.74H99.9198L101 25.04L99.7198 28.06C99.5465 28.4467 99.3665 28.7267 99.1798 28.9C98.9931 29.0733 98.7265 29.16 98.3798 29.16ZM104.12 17.68L101.32 24.34L100.8 23.7H107.48L106.98 24.34L104.16 17.68H104.12ZM119.826 29.2C119.24 29.2 118.653 29.1533 118.066 29.06C117.48 28.98 116.926 28.8533 116.406 28.68C115.886 28.4933 115.42 28.2667 115.006 28C114.766 27.84 114.6 27.6467 114.506 27.42C114.413 27.1933 114.38 26.9733 114.406 26.76C114.446 26.5333 114.533 26.34 114.666 26.18C114.813 26.0067 114.993 25.9 115.206 25.86C115.42 25.82 115.653 25.88 115.906 26.04C116.493 26.3867 117.113 26.64 117.766 26.8C118.42 26.96 119.106 27.04 119.826 27.04C120.88 27.04 121.646 26.8667 122.126 26.52C122.606 26.16 122.846 25.7 122.846 25.14C122.846 24.6733 122.673 24.3067 122.326 24.04C121.993 23.7733 121.413 23.5533 120.586 23.38L118.386 22.92C117.12 22.6533 116.173 22.2067 115.546 21.58C114.933 20.94 114.626 20.1 114.626 19.06C114.626 18.4067 114.76 17.8133 115.026 17.28C115.293 16.7467 115.666 16.2867 116.146 15.9C116.64 15.5133 117.22 15.22 117.886 15.02C118.566 14.8067 119.313 14.7 120.126 14.7C120.926 14.7 121.686 14.8 122.406 15C123.126 15.2 123.773 15.4933 124.346 15.88C124.56 16.0267 124.7 16.2067 124.766 16.42C124.846 16.6333 124.866 16.8467 124.826 17.06C124.786 17.26 124.693 17.4333 124.546 17.58C124.4 17.7267 124.213 17.8133 123.986 17.84C123.773 17.8667 123.526 17.8 123.246 17.64C122.753 17.36 122.253 17.16 121.746 17.04C121.24 16.92 120.693 16.86 120.106 16.86C119.493 16.86 118.966 16.9467 118.526 17.12C118.086 17.2933 117.746 17.54 117.506 17.86C117.28 18.1667 117.166 18.5333 117.166 18.96C117.166 19.44 117.326 19.8267 117.646 20.12C117.966 20.4 118.513 20.62 119.286 20.78L121.466 21.24C122.786 21.52 123.766 21.96 124.406 22.56C125.06 23.16 125.386 23.96 125.386 24.96C125.386 25.6 125.253 26.18 124.986 26.7C124.733 27.22 124.36 27.6667 123.866 28.04C123.386 28.4133 122.806 28.7 122.126 28.9C121.446 29.1 120.68 29.2 119.826 29.2ZM130.864 29.16C130.45 29.16 130.13 29.0467 129.904 28.82C129.69 28.58 129.584 28.2533 129.584 27.84V16.06C129.584 15.6333 129.69 15.3067 129.904 15.08C130.13 14.8533 130.45 14.74 130.864 14.74C131.277 14.74 131.59 14.8533 131.804 15.08C132.03 15.3067 132.144 15.6333 132.144 16.06V20.78H139.404V16.06C139.404 15.6333 139.51 15.3067 139.724 15.08C139.95 14.8533 140.27 14.74 140.684 14.74C141.097 14.74 141.41 14.8533 141.624 15.08C141.85 15.3067 141.964 15.6333 141.964 16.06V27.84C141.964 28.2533 141.85 28.58 141.624 28.82C141.41 29.0467 141.097 29.16 140.684 29.16C140.27 29.16 139.95 29.0467 139.724 28.82C139.51 28.58 139.404 28.2533 139.404 27.84V22.92H132.144V27.84C132.144 28.2533 132.037 28.58 131.824 28.82C131.61 29.0467 131.29 29.16 130.864 29.16ZM148.332 29.16C147.919 29.16 147.599 29.0467 147.372 28.82C147.159 28.58 147.052 28.2533 147.052 27.84V16.06C147.052 15.6333 147.159 15.3067 147.372 15.08C147.599 14.8533 147.919 14.74 148.332 14.74C148.746 14.74 149.059 14.8533 149.272 15.08C149.499 15.3067 149.612 15.6333 149.612 16.06V27.84C149.612 28.2533 149.506 28.58 149.292 28.82C149.079 29.0467 148.759 29.16 148.332 29.16Z" fill="#0D0D0D"/>
<path d="M16.5685 14.1488C15.46 11.5191 11.4314 10.7063 7.57039 12.3337C3.98702 13.8443 1.8078 16.9253 2.39912 19.4632C2.42557 19.6498 2.48688 19.8426 2.58675 20.0423C2.63799 20.164 2.6956 20.282 2.75921 20.396C3.92175 22.8069 4.47119 24.854 4.85563 26.7409C5.56249 30.2113 5.62533 31.9823 5.61934 33.4233C5.61921 33.4675 5.62049 33.5086 5.62259 33.5477C5.68868 36.192 7.8517 38.3159 10.512 38.3159C13.2145 38.3159 15.4048 36.1252 15.4048 33.4233C15.4048 31.9577 14.7148 30.7728 13.7391 29.747C13.6519 29.6364 13.5284 29.4874 13.5052 29.4532C13.0838 28.8302 12.8603 28.5226 12.5767 27.5963C11.8437 25.2019 12.9556 22.1409 14.7148 19.9971C14.7592 19.9433 14.7509 19.954 14.7275 19.9832C16.6234 17.9346 17.2514 15.7688 16.5685 14.1488Z" fill="#0D0D0D"/>
<path d="M17.1894 5.75793C15.5904 5.75793 14.2939 7.05413 14.2939 8.65345C14.2939 10.2524 15.5904 11.5486 17.1894 11.5486C18.7884 11.5486 20.085 10.2524 20.085 8.65345C20.085 7.05413 18.7884 5.75793 17.1894 5.75793Z" fill="#0D0D0D"/>
<path d="M10.8303 10.0459C12.0344 10.0459 13.0109 9.06968 13.0109 7.8652C13.0109 6.66115 12.0344 5.68445 10.8303 5.68445C9.62593 5.68445 8.64941 6.66115 8.64941 7.8652C8.64948 9.06962 9.62593 10.0459 10.8303 10.0459Z" fill="#0D0D0D"/>
<path d="M5.78994 11.1456C6.92349 11.1456 7.84239 10.2265 7.84239 9.0931C7.84239 7.95936 6.92349 7.04065 5.78994 7.04065C4.65639 7.04065 3.7373 7.95936 3.7373 9.0931C3.7373 10.2265 4.65639 11.1456 5.78994 11.1456Z" fill="#0D0D0D"/>
<path d="M3.66514 12.2084C3.66514 11.1963 2.84458 10.376 1.83257 10.376C0.820494 10.376 0 11.1963 0 12.2084C0 13.2208 0.820558 14.0411 1.83257 14.0411C2.84458 14.0411 3.66514 13.2207 3.66514 12.2084Z" fill="#0D0D0D"/>
</svg>
